<?xml version="1.0" encoding="UTF-8" standalone="no"?>
<!DOCTYPE svg PUBLIC "-//W3C//DTD SVG 1.1//EN" "http://www.w3.org/Graphics/SVG/1.1/DTD/svg11.dtd">
<svg width="100%" height="100%" viewBox="0 0 500 313" version="1.1" xmlns="http://www.w3.org/2000/svg" xmlns:xlink="http://www.w3.org/1999/xlink" xml:space="preserve" xmlns:serif="http://www.serif.com/" style="fill-rule:evenodd;clip-rule:evenodd;stroke-linejoin:round;stroke-miterlimit:2;">
    <g transform="matrix(0.912055,0,0,0.912055,-69.2197,-98.6204)">
        <path d="M606.48,259.84C604.242,258.719 567.839,246.399 523.039,245.281C522.48,200.48 509.598,164.64 508.48,161.84C506.242,155.121 499.519,151.199 492.242,152.32C489.441,152.879 451.922,160.16 413.281,181.442C390.32,143.363 361.203,118.16 358.961,116.48C353.359,112 345.52,112 340.481,116.48C338.243,118.16 309.122,143.36 286.161,181.442C246.962,159.601 209.442,152.883 207.2,152.32C200.481,151.199 193.2,155.121 190.962,161.84C189.841,164.078 177.521,200.481 176.403,245.281C131.602,245.84 95.762,258.722 92.962,259.84C86.802,262.078 82.88,268.801 84.001,275.52C84.56,280.001 103.603,381.92 178.079,425.04C206.638,441.278 238.001,446.321 266.559,446.321C304.637,446.321 337.118,437.36 349.438,433.442C361.758,437.364 394.239,446.321 432.317,446.321C446.876,446.321 461.438,445.2 477.118,441.84C492.239,438.481 507.356,433.442 521.356,425.039C595.84,381.922 614.879,280 616.001,275.52C617.122,268.801 613.2,262.079 606.482,259.839L606.48,259.84ZM485.52,184.238C492.801,210.558 505.122,274.957 477.122,324.238C458.642,356.16 425.602,376.316 397.602,388.636C418.883,360.077 441.84,319.757 441.84,273.836C441.84,250.316 435.679,227.914 427.281,208.316C449.121,194.878 472.078,187.601 485.519,184.238L485.52,184.238ZM350,147.84C369.602,167.442 412.719,216.719 412.719,273.28C412.719,329.839 369.602,379.12 350,398.72C330.398,379.118 287.281,329.841 287.281,273.28C287.281,216.721 330.398,167.44 350,147.84ZM214.48,184.238C227.921,187.597 250.32,195.437 273.281,207.758C264.32,227.36 258.722,249.758 258.722,273.278C258.722,319.2 281.12,360.079 302.96,388.078C274.96,375.758 241.921,355.598 223.44,323.68C194.878,274.961 207.76,210.56 214.479,184.24L214.48,184.238ZM193.199,399.838C144.48,371.838 123.199,309.678 115.918,282.798C129.359,279.439 152.316,274.4 178.078,273.837C180.316,295.677 186.476,317.517 198.238,338.235C221.199,377.997 260.961,402.075 294,416.075C263.762,419.438 225.121,418.317 193.2,399.837L193.199,399.838ZM561.119,341.037C548.799,363.435 531.439,385.838 506.799,399.838C474.877,418.318 436.24,419.44 405.999,415.518C439.038,401.518 478.8,377.998 501.761,338.237C513.523,318.077 519.12,295.678 521.921,273.839C547.683,274.398 571.202,279.441 584.64,282.8C580.718,296.238 573.441,318.64 561.12,341.038L561.119,341.037Z" style="fill-rule:nonzero;"/>
    </g>
</svg>
